<svg width="612" height="612" viewBox="0 0 612 612" fill="none" xmlns="http://www.w3.org/2000/svg">
<g clip-path="url(#clip0_2008_2)">
<path d="M286.304 0.686523C296.973 -2.17213 307.939 4.1592 310.798 14.8281L318.248 42.6299C320.469 50.9196 327.743 56.789 336.263 57.8223C359.372 60.6248 382.164 66.6497 403.913 75.8965C411.81 79.2537 421.042 77.8077 427.109 71.7402L447.415 51.4346C455.226 43.6245 467.889 43.6243 475.699 51.4346L560.552 136.288C568.362 144.099 568.362 156.762 560.552 164.572L540.246 184.878C534.179 190.945 532.733 200.178 536.091 208.074C545.337 229.823 551.362 252.615 554.164 275.724C555.197 284.243 561.066 291.517 569.355 293.738L597.158 301.188C607.827 304.047 614.16 315.014 611.301 325.684L580.242 441.595C577.383 452.264 566.416 458.595 555.747 455.736L527.972 448.294C519.692 446.075 510.982 449.429 505.821 456.273C498.862 465.504 491.178 474.363 482.771 482.771C474.363 491.178 465.505 498.861 456.274 505.82C449.43 510.981 446.075 519.691 448.294 527.971L455.737 555.747C458.596 566.416 452.264 577.383 441.595 580.242L325.684 611.301C315.014 614.16 304.047 607.828 301.188 597.158L293.739 569.355C291.518 561.066 284.243 555.196 275.724 554.163C252.615 551.361 229.823 545.336 208.074 536.09C200.178 532.733 190.945 534.179 184.878 540.246L164.572 560.552C156.762 568.362 144.099 568.362 136.288 560.552L51.4346 475.699C43.6243 467.889 43.6244 455.226 51.4346 447.415L71.7412 427.108C77.8087 421.041 79.2539 411.809 75.8965 403.912C66.6498 382.164 60.6258 359.371 57.8232 336.263C56.79 327.743 50.9206 320.468 42.6309 318.247L14.8291 310.798C4.15981 307.939 -2.17208 296.973 0.686523 286.304L31.7451 170.392C34.6039 159.723 45.5702 153.391 56.2393 156.249L84.0166 163.691C92.2962 165.91 101.005 162.556 106.166 155.712C113.125 146.482 120.809 137.624 129.217 129.217C137.625 120.809 146.483 113.125 155.713 106.165C162.557 101.004 165.911 92.2944 163.692 84.0146L156.25 56.2402C153.391 45.5711 159.723 34.6042 170.392 31.7451L286.304 0.686523ZM306 206C250.772 206 206 250.772 206 306C206 361.228 250.772 406 306 406C361.228 406 406 361.228 406 306C406 250.772 361.228 206 306 206Z" fill="#FE4365"/>
</g>
<defs>
<clipPath id="clip0_2008_2">
<rect width="612" height="612" fill="white"/>
</clipPath>
</defs>
</svg>
